<?xml version="1.0" encoding="UTF-8" standalone="no"?>
<!DOCTYPE svg PUBLIC "-//W3C//DTD SVG 1.0//EN" "http://www.w3.org/TR/2001/PR-SVG-20010719/DTD/svg10.dtd">
<svg width="63cm" height="43cm" viewBox="-171 -41 1256 841" xmlns="http://www.w3.org/2000/svg" xmlns:xlink="http://www.w3.org/1999/xlink">
  <g>
    <polygon style="fill: #ffffff" points="-169.176,90.7744 -159.176,80.7744 -98.1256,80.7744 -98.1256,208.774 -108.126,218.774 -169.176,218.774 -169.176,90.7744 "/>
    <polygon style="fill: none; fill-opacity:0; stroke-width: 2; stroke: #000000" points="-169.176,90.7744 -159.176,80.7744 -98.1256,80.7744 -98.1256,208.774 -108.126,218.774 -169.176,218.774 -169.176,90.7744 "/>
    <line style="fill: none; fill-opacity:0; stroke-width: 2; stroke: #000000" x1="-169.176" y1="90.7744" x2="-108.126" y2="90.7744"/>
    <line style="fill: none; fill-opacity:0; stroke-width: 2; stroke: #000000" x1="-108.126" y1="90.7744" x2="-98.1256" y2="80.7744"/>
    <line style="fill: none; fill-opacity:0; stroke-width: 2; stroke: #000000" x1="-108.126" y1="90.7744" x2="-108.126" y2="218.774"/>
    <text font-size="12.8" style="fill: #000000;text-anchor:start;font-family:sans-serif;font-style:normal;font-weight:normal" x="-159.176" y="113.574">
      <tspan x="-159.176" y="113.574">Third</tspan>
      <tspan x="-159.176" y="129.574">Party</tspan>
      <tspan x="-159.176" y="145.574">System</tspan>
    </text>
    <line style="fill: none; fill-opacity:0; stroke-width: 1; stroke: #000000" x1="-159.176" y1="116.224" x2="-129.876" y2="116.224"/>
    <line style="fill: none; fill-opacity:0; stroke-width: 1; stroke: #000000" x1="-159.176" y1="132.224" x2="-130.126" y2="132.224"/>
    <line style="fill: none; fill-opacity:0; stroke-width: 1; stroke: #000000" x1="-159.176" y1="148.224" x2="-118.126" y2="148.224"/>
  </g>
  <g>
    <polygon style="fill: #ffffff" points="17.4924,39.573 27.4924,29.573 120.092,29.573 120.092,81.573 110.092,91.573 17.4924,91.573 17.4924,39.573 "/>
    <polygon style="fill: none; fill-opacity:0; stroke-width: 2; stroke: #000000" points="17.4924,39.573 27.4924,29.573 120.092,29.573 120.092,81.573 110.092,91.573 17.4924,91.573 17.4924,39.573 "/>
    <line style="fill: none; fill-opacity:0; stroke-width: 2; stroke: #000000" x1="17.4924" y1="39.573" x2="110.092" y2="39.573"/>
    <line style="fill: none; fill-opacity:0; stroke-width: 2; stroke: #000000" x1="110.092" y1="39.573" x2="120.092" y2="29.573"/>
    <line style="fill: none; fill-opacity:0; stroke-width: 2; stroke: #000000" x1="110.092" y1="39.573" x2="110.092" y2="91.573"/>
    <text font-size="12.8" style="fill: #000000;text-anchor:start;font-family:sans-serif;font-style:normal;font-weight:normal" x="27.4924" y="62.373">
      <tspan x="27.4924" y="62.373">BlockChain</tspan>
      <tspan x="27.4924" y="78.373">API Gateway</tspan>
    </text>
    <line style="fill: none; fill-opacity:0; stroke-width: 1; stroke: #000000" x1="27.4924" y1="65.023" x2="88.8924" y2="65.023"/>
    <line style="fill: none; fill-opacity:0; stroke-width: 1; stroke: #000000" x1="27.4924" y1="81.023" x2="100.092" y2="81.023"/>
  </g>
  <g>
    <line style="fill: none; fill-opacity:0; stroke-width: 1; stroke-dasharray: 8; stroke: #000000" x1="63.7924" y1="92.49" x2="63.7924" y2="145.49"/>
    <line style="fill: none; fill-opacity:0; stroke-width: 1; stroke-dasharray: 8; stroke: #000000" x1="63.7924" y1="765.49" x2="63.7924" y2="799.04"/>
    <rect style="fill: #ffffff" x="56.7924" y="145.49" width="14" height="620"/>
    <rect style="fill: none; fill-opacity:0; stroke-width: 2; stroke: #000000" x="56.7924" y="145.49" width="14" height="620"/>
  </g>
  <g>
    <line style="fill: none; fill-opacity:0; stroke-width: 2; stroke: #000000" x1="-80.1262" y1="154.989" x2="56.7924" y2="155.49"/>
    <polygon style="fill: #000000" points="-80.1079,149.989 -96.1261,154.93 -80.1445,159.989 "/>
    <polygon style="fill: none; fill-opacity:0; stroke-width: 2; stroke: #000000" points="-80.1079,149.989 -96.1261,154.93 -80.1445,159.989 "/>
    <text font-size="12.7998" style="fill: #000000;text-anchor:middle;font-family:sans-serif;font-style:normal;font-weight:normal" x="-18.1757" y="139.79">GetNewQualificationRecord</text>
  </g>
  <g>
    <line style="fill: none; fill-opacity:0; stroke-width: 2; stroke-dasharray: 8; stroke: #000000" x1="39.7925" y1="175.549" x2="-90.1756" y2="176"/>
    <polygon style="fill: #000000" points="39.8099,180.549 55.7924,175.493 39.7752,170.549 "/>
    <polygon style="fill: none; fill-opacity:0; stroke-width: 2; stroke: #000000" points="39.8099,180.549 55.7924,175.493 39.7752,170.549 "/>
    <text font-size="12.7998" style="fill: #000000;text-anchor:middle;font-family:sans-serif;font-style:normal;font-weight:normal" x="-16.6916" y="185.745">NewRecord</text>
  </g>
  <g>
    <line style="fill: none; fill-opacity:0; stroke-width: 1; stroke-dasharray: 8; stroke: #000000" x1="229.07" y1="94.5414" x2="229.07" y2="175.492"/>
    <line style="fill: none; fill-opacity:0; stroke-width: 1; stroke-dasharray: 8; stroke: #000000" x1="229.07" y1="235.492" x2="229.07" y2="799.683"/>
    <rect style="fill: #ffffff" x="222.07" y="175.492" width="14" height="60"/>
    <rect style="fill: none; fill-opacity:0; stroke-width: 2; stroke: #000000" x="222.07" y="175.492" width="14" height="60"/>
  </g>
  <g>
    <line style="fill: none; fill-opacity:0; stroke-width: 2; stroke: #000000" x1="205.07" y1="175.492" x2="70.7924" y2="175.49"/>
    <polygon style="fill: #000000" points="205.07,180.492 221.07,175.492 205.07,170.492 "/>
    <polygon style="fill: none; fill-opacity:0; stroke-width: 2; stroke: #000000" points="205.07,180.492 221.07,175.492 205.07,170.492 "/>
    <text font-size="12.7998" style="fill: #000000;text-anchor:middle;font-family:sans-serif;font-style:normal;font-weight:normal" x="142.117" y="166.823">IsProfileExist</text>
  </g>
  <g>
    <line style="fill: none; fill-opacity:0; stroke-width: 2; stroke-dasharray: 8; stroke: #000000" x1="87.7924" y1="195.49" x2="222.07" y2="195.492"/>
    <polygon style="fill: #000000" points="87.7925,190.49 71.7924,195.49 87.7923,200.49 "/>
    <polygon style="fill: none; fill-opacity:0; stroke-width: 2; stroke: #000000" points="87.7925,190.49 71.7924,195.49 87.7923,200.49 "/>
    <text font-size="12.7998" style="fill: #000000;text-anchor:middle;font-family:sans-serif;font-style:normal;font-weight:normal" x="148.612" y="214.498">WorkerProfileContractList</text>
  </g>
  <g>
    <rect style="fill: #ffffff" x="180.07" y="52.5414" width="98" height="36"/>
    <rect style="fill: none; fill-opacity:0; stroke-width: 2; stroke: #000000" x="180.07" y="52.5414" width="98" height="36"/>
    <text font-size="12.8" style="fill: #000000;text-anchor:middle;font-family:sans-serif;font-style:normal;font-weight:normal" x="229.07" y="75.3414">
      <tspan x="229.07" y="75.3414">ProfileCabient</tspan>
    </text>
    <line style="fill: none; fill-opacity:0; stroke-width: 1; stroke: #000000" x1="190.07" y1="77.9914" x2="268.07" y2="77.9914"/>
  </g>
  <g>
    <rect style="fill: #ffffff" x="361.26" y="52.1572" width="136.45" height="36"/>
    <rect style="fill: none; fill-opacity:0; stroke-width: 2; stroke: #000000" x="361.26" y="52.1572" width="136.45" height="36"/>
    <text font-size="12.8" style="fill: #000000;text-anchor:middle;font-family:sans-serif;font-style:normal;font-weight:normal" x="429.485" y="74.9572">
      <tspan x="429.485" y="74.9572">ProfileSmartContract</tspan>
    </text>
    <line style="fill: none; fill-opacity:0; stroke-width: 1; stroke: #000000" x1="371.26" y1="77.6072" x2="487.71" y2="77.6072"/>
  </g>
  <g>
    <rect style="fill: #ffffff" x="744.946" y="51.2402" width="132.45" height="36"/>
    <rect style="fill: none; fill-opacity:0; stroke-width: 2; stroke: #000000" x="744.946" y="51.2402" width="132.45" height="36"/>
    <text font-size="12.8" style="fill: #000000;text-anchor:middle;font-family:sans-serif;font-style:normal;font-weight:normal" x="811.171" y="74.0402">
      <tspan x="811.171" y="74.0402">QualificationCabient</tspan>
    </text>
    <line style="fill: none; fill-opacity:0; stroke-width: 1; stroke: #000000" x1="754.946" y1="76.6902" x2="867.396" y2="76.6902"/>
  </g>
  <g>
    <path style="fill: none; fill-opacity:0; stroke-width: 2; stroke: #000000" d="M 56.7924,325.49 A 14.7249,14.7249 0 1 0 49.4844,349.793"/>
    <polygon style="fill: #000000" points="55.2738,347.131 52.1528,357.867 50.1804,352.637 44.8125,351.076 "/>
    <polygon style="fill: none; fill-opacity:0; stroke-width: 2; stroke: #000000" points="55.2738,347.131 52.1528,357.867 50.1804,352.637 44.8125,351.076 "/>
  </g>
  <text font-size="12.8" style="fill: #000000;text-anchor:start;font-family:sans-serif;font-style:normal;font-weight:normal" x="-40.9868" y="309.406">
    <tspan x="-40.9868" y="309.406">Generate</tspan>
    <tspan x="-40.9868" y="325.406">Digi Cert for</tspan>
    <tspan x="-40.9868" y="341.406">Qualification</tspan>
  </text>
  <g>
    <line style="fill: none; fill-opacity:0; stroke-width: 1; stroke-dasharray: 8; stroke: #000000" x1="811.17" y1="87.2402" x2="811.17" y2="295.508"/>
    <line style="fill: none; fill-opacity:0; stroke-width: 1; stroke-dasharray: 8; stroke: #000000" x1="811.17" y1="535.508" x2="811.17" y2="796.726"/>
    <rect style="fill: #ffffff" x="804.17" y="295.508" width="14" height="240"/>
    <rect style="fill: none; fill-opacity:0; stroke-width: 2; stroke: #000000" x="804.17" y="295.508" width="14" height="240"/>
  </g>
  <g>
    <line style="fill: none; fill-opacity:0; stroke-width: 2; stroke: #000000" x1="787.17" y1="365.508" x2="70.7924" y2="365.49"/>
    <polygon style="fill: #000000" points="787.17,370.508 803.17,365.508 787.17,360.508 "/>
    <polygon style="fill: none; fill-opacity:0; stroke-width: 2; stroke: #000000" points="787.17,370.508 803.17,365.508 787.17,360.508 "/>
    <text font-size="12.7998" style="fill: #000000;text-anchor:middle;font-family:sans-serif;font-style:normal;font-weight:normal" x="674.824" y="354">Mint Qualification to Worker Profile</text>
  </g>
  <g>
    <rect style="fill: #ffffff" x="921.01" y="51.3232" width="163.75" height="36"/>
    <rect style="fill: none; fill-opacity:0; stroke-width: 2; stroke: #000000" x="921.01" y="51.3232" width="163.75" height="36"/>
    <text font-size="12.8" style="fill: #000000;text-anchor:middle;font-family:sans-serif;font-style:normal;font-weight:normal" x="1002.89" y="74.1232">
      <tspan x="1002.89" y="74.1232">QualificatioSmartContract</tspan>
    </text>
    <line style="fill: none; fill-opacity:0; stroke-width: 1; stroke: #000000" x1="931.01" y1="76.7732" x2="1074.76" y2="76.7732"/>
  </g>
  <g>
    <path style="fill: none; fill-opacity:0; stroke-width: 2; stroke: #000000" d="M 825.976,496.658 A 11.3937,11.3937 0 1 0 818.17,475.508"/>
    <polygon style="fill: #000000" points="820.133,496.58 831.306,496.984 826.715,500.174 826.513,505.761 "/>
    <polygon style="fill: none; fill-opacity:0; stroke-width: 2; stroke: #000000" points="820.133,496.58 831.306,496.984 826.715,500.174 826.513,505.761 "/>
  </g>
  <text font-size="12.8" style="fill: #000000;text-anchor:start;font-family:sans-serif;font-style:normal;font-weight:normal" x="837.144" y="368.936">
    <tspan x="837.144" y="368.936">CheckRights</tspan>
  </text>
  <g>
    <line style="fill: none; fill-opacity:0; stroke-width: 1; stroke-dasharray: 8; stroke: #000000" x1="1002.89" y1="68.3232" x2="1002.89" y2="396.752"/>
    <line style="fill: none; fill-opacity:0; stroke-width: 1; stroke-dasharray: 8; stroke: #000000" x1="1002.89" y1="536.752" x2="1002.89" y2="796.184"/>
    <rect style="fill: #ffffff" x="995.885" y="396.752" width="14" height="140"/>
    <rect style="fill: none; fill-opacity:0; stroke-width: 2; stroke: #000000" x="995.885" y="396.752" width="14" height="140"/>
  </g>
  <g>
    <line style="fill: none; fill-opacity:0; stroke-width: 2; stroke: #000000" x1="978.885" y1="406.633" x2="818.17" y2="405.508"/>
    <polygon style="fill: #000000" points="978.85,411.633 994.885,406.745 978.92,401.633 "/>
    <polygon style="fill: none; fill-opacity:0; stroke-width: 2; stroke: #000000" points="978.85,411.633 994.885,406.745 978.92,401.633 "/>
    <text font-size="12.7998" style="fill: #000000;text-anchor:middle;font-family:sans-serif;font-style:normal;font-weight:normal" x="905.283" y="424.49">NewQualificationContract</text>
  </g>
  <g>
    <line style="fill: none; fill-opacity:0; stroke-width: 2; stroke-dasharray: 8; stroke: #000000" x1="835.17" y1="445.627" x2="995.885" y2="446.752"/>
    <polygon style="fill: #000000" points="835.205,440.627 819.17,445.515 835.135,450.627 "/>
    <polygon style="fill: none; fill-opacity:0; stroke-width: 2; stroke: #000000" points="835.205,440.627 819.17,445.515 835.135,450.627 "/>
    <text font-size="12.7998" style="fill: #000000;text-anchor:middle;font-family:sans-serif;font-style:normal;font-weight:normal" x="907.027" y="456.13">ContractAddress</text>
  </g>
  <g>
    <path style="fill: none; fill-opacity:0; stroke-width: 2; stroke: #000000" d="M 825.851,388.328 A 12.825,12.825 0 1 0 818.17,365.508"/>
    <polygon style="fill: #000000" points="819.914,386.908 830.841,389.271 825.761,391.604 824.58,397.068 "/>
    <polygon style="fill: none; fill-opacity:0; stroke-width: 2; stroke: #000000" points="819.914,386.908 830.841,389.271 825.761,391.604 824.58,397.068 "/>
  </g>
  <text font-size="12.8" style="fill: #000000;text-anchor:start;font-family:sans-serif;font-style:normal;font-weight:normal" x="836.332" y="490.462">
    <tspan x="836.332" y="490.462">Assign</tspan>
    <tspan x="836.332" y="506.462">Token to WorkerProfile</tspan>
  </text>
  <g>
    <line style="fill: none; fill-opacity:0; stroke-width: 2; stroke-dasharray: 8; stroke: #000000" x1="87.7924" y1="515.49" x2="804.17" y2="515.508"/>
    <polygon style="fill: #000000" points="87.7925,510.49 71.7924,515.49 87.7923,520.49 "/>
    <polygon style="fill: none; fill-opacity:0; stroke-width: 2; stroke: #000000" points="87.7925,510.49 71.7924,515.49 87.7923,520.49 "/>
    <text font-size="12.7998" style="fill: #000000;text-anchor:middle;font-family:sans-serif;font-style:normal;font-weight:normal" x="185.824" y="504">Qualification Contract Address</text>
  </g>
  <g>
    <line style="fill: none; fill-opacity:0; stroke-width: 1; stroke-dasharray: 8; stroke: #000000" x1="429.485" y1="88.1572" x2="429.485" y2="533.789"/>
    <line style="fill: none; fill-opacity:0; stroke-width: 1; stroke-dasharray: 8; stroke: #000000" x1="429.485" y1="593.789" x2="429.485" y2="797.268"/>
    <rect style="fill: #ffffff" x="422.485" y="533.789" width="14" height="60"/>
    <rect style="fill: none; fill-opacity:0; stroke-width: 2; stroke: #000000" x="422.485" y="533.789" width="14" height="60"/>
  </g>
  <g>
    <line style="fill: none; fill-opacity:0; stroke-width: 2; stroke: #000000" x1="405.485" y1="543.872" x2="70.7924" y2="545.49"/>
    <polygon style="fill: #000000" points="405.509,548.872 421.485,543.794 405.461,538.872 "/>
    <polygon style="fill: none; fill-opacity:0; stroke-width: 2; stroke: #000000" points="405.509,548.872 421.485,543.794 405.461,538.872 "/>
    <text font-size="12.7998" style="fill: #000000;text-anchor:middle;font-family:sans-serif;font-style:normal;font-weight:normal" x="242.686" y="539.64">Update Qualification Record to Worker Profile</text>
  </g>
  <g>
    <rect style="fill: #ffffff" x="545.76" y="51.6618" width="155.9" height="36"/>
    <rect style="fill: none; fill-opacity:0; stroke-width: 2; stroke: #000000" x="545.76" y="51.6618" width="155.9" height="36"/>
    <text font-size="12.8" style="fill: #000000;text-anchor:middle;font-family:sans-serif;font-style:normal;font-weight:normal" x="623.71" y="74.4618">
      <tspan x="623.71" y="74.4618">Ethereum Name Service</tspan>
    </text>
    <line style="fill: none; fill-opacity:0; stroke-width: 1; stroke: #000000" x1="555.76" y1="77.1118" x2="691.66" y2="77.1118"/>
  </g>
  <g>
    <line style="fill: none; fill-opacity:0; stroke-width: 1; stroke-dasharray: 8; stroke: #000000" x1="623.71" y1="285" x2="623.71" y2="603.151"/>
    <line style="fill: none; fill-opacity:0; stroke-width: 1; stroke-dasharray: 8; stroke: #000000" x1="623.71" y1="643.151" x2="623.71" y2="797.47"/>
    <rect style="fill: #ffffff" x="616.71" y="603.151" width="14" height="40"/>
    <rect style="fill: none; fill-opacity:0; stroke-width: 2; stroke: #000000" x="616.71" y="603.151" width="14" height="40"/>
  </g>
  <g>
    <line style="fill: none; fill-opacity:0; stroke-width: 2; stroke: #000000" x1="599.71" y1="613.223" x2="70.7924" y2="615.49"/>
    <polygon style="fill: #000000" points="599.732,618.223 615.71,613.154 599.689,608.223 "/>
    <polygon style="fill: none; fill-opacity:0; stroke-width: 2; stroke: #000000" points="599.732,618.223 615.71,613.154 599.689,608.223 "/>
    <text font-size="12.7998" style="fill: #000000;text-anchor:middle;font-family:sans-serif;font-style:normal;font-weight:normal" x="499.248" y="635.552">Register Qualification Contract Address</text>
  </g>
  <text font-size="19.1911" style="fill: #000000;text-anchor:start;font-family:sans-serif;font-style:normal;font-weight:700" x="-117.176" y="-20.7382">
    <tspan x="-117.176" y="-20.7382">New Qualification for Existing Profile</tspan>
  </text>
  <g>
    <line style="fill: none; fill-opacity:0; stroke-width: 2; stroke: #000000" x1="787.17" y1="305.508" x2="70.7924" y2="305.49"/>
    <polygon style="fill: #000000" points="787.17,310.508 803.17,305.508 787.17,300.508 "/>
    <polygon style="fill: none; fill-opacity:0; stroke-width: 2; stroke: #000000" points="787.17,310.508 803.17,305.508 787.17,300.508 "/>
    <text font-size="12.7998" style="fill: #000000;text-anchor:middle;font-family:sans-serif;font-style:normal;font-weight:normal" x="715.928" y="299.364">Is Qualification Exists</text>
  </g>
  <g>
    <line style="fill: none; fill-opacity:0; stroke-width: 2; stroke-dasharray: 8; stroke: #000000" x1="87.7924" y1="325.49" x2="804.17" y2="325.508"/>
    <polygon style="fill: #000000" points="87.7925,320.49 71.7924,325.49 87.7923,330.49 "/>
    <polygon style="fill: none; fill-opacity:0; stroke-width: 2; stroke: #000000" points="87.7925,320.49 71.7924,325.49 87.7923,330.49 "/>
    <text font-size="12.7998" style="fill: #000000;text-anchor:middle;font-family:sans-serif;font-style:normal;font-weight:normal" x="125.262" y="341.774">Result</text>
  </g>
  <g>
    <line style="fill: none; fill-opacity:0; stroke-width: 1; stroke-dasharray: 8; stroke: #000000" x1="623.71" y1="69.6618" x2="623.71" y2="245"/>
    <line style="fill: none; fill-opacity:0; stroke-width: 1; stroke-dasharray: 8; stroke: #000000" x1="623.71" y1="285" x2="623.71" y2="362"/>
    <rect style="fill: #ffffff" x="616.71" y="245" width="14" height="40"/>
    <rect style="fill: none; fill-opacity:0; stroke-width: 2; stroke: #000000" x="616.71" y="245" width="14" height="40"/>
  </g>
  <g>
    <line style="fill: none; fill-opacity:0; stroke-width: 2; stroke: #000000" x1="599.71" y1="245.015" x2="70.7924" y2="245.49"/>
    <polygon style="fill: #000000" points="599.714,250.015 615.71,245.001 599.706,240.015 "/>
    <polygon style="fill: none; fill-opacity:0; stroke-width: 2; stroke: #000000" points="599.714,250.015 615.71,245.001 599.706,240.015 "/>
    <text font-size="12.7998" style="fill: #000000;text-anchor:middle;font-family:sans-serif;font-style:normal;font-weight:normal" x="521.172" y="240.748">QueryQualificationCabient</text>
  </g>
  <g>
    <line style="fill: none; fill-opacity:0; stroke-width: 2; stroke-dasharray: 8; stroke: #000000" x1="87.7924" y1="275.475" x2="616.71" y2="275"/>
    <polygon style="fill: #000000" points="87.7879,270.475 71.7924,275.489 87.7969,280.475 "/>
    <polygon style="fill: none; fill-opacity:0; stroke-width: 2; stroke: #000000" points="87.7879,270.475 71.7924,275.489 87.7969,280.475 "/>
    <text font-size="12.7998" style="fill: #000000;text-anchor:middle;font-family:sans-serif;font-style:normal;font-weight:normal" x="179.574" y="273.132">QualificationContractAddress</text>
  </g>
</svg>
