<?xml version="1.0" encoding="UTF-8" standalone="no"?>
<!DOCTYPE svg PUBLIC "-//W3C//DTD SVG 1.0//EN" "http://www.w3.org/TR/2001/PR-SVG-20010719/DTD/svg10.dtd">
<svg width="55cm" height="28cm" viewBox="-171 -21 1088 545" xmlns="http://www.w3.org/2000/svg" xmlns:xlink="http://www.w3.org/1999/xlink">
  <g>
    <polygon style="fill: #ffffff" points="-169.176,90.7744 -159.176,80.7744 -98.1256,80.7744 -98.1256,502.766 -108.126,512.766 -169.176,512.766 -169.176,90.7744 "/>
    <polygon style="fill: none; fill-opacity:0; stroke-width: 2; stroke: #000000" points="-169.176,90.7744 -159.176,80.7744 -98.1256,80.7744 -98.1256,502.766 -108.126,512.766 -169.176,512.766 -169.176,90.7744 "/>
    <line style="fill: none; fill-opacity:0; stroke-width: 2; stroke: #000000" x1="-169.176" y1="90.7744" x2="-108.126" y2="90.7744"/>
    <line style="fill: none; fill-opacity:0; stroke-width: 2; stroke: #000000" x1="-108.126" y1="90.7744" x2="-98.1256" y2="80.7744"/>
    <line style="fill: none; fill-opacity:0; stroke-width: 2; stroke: #000000" x1="-108.126" y1="90.7744" x2="-108.126" y2="512.766"/>
    <text font-size="12.8" style="fill: #000000;text-anchor:start;font-family:sans-serif;font-style:normal;font-weight:normal" x="-159.176" y="113.574">
      <tspan x="-159.176" y="113.574">Mobile</tspan>
      <tspan x="-159.176" y="129.574">App</tspan>
      <tspan x="-159.176" y="145.574">Server</tspan>
    </text>
    <line style="fill: none; fill-opacity:0; stroke-width: 1; stroke: #000000" x1="-159.176" y1="116.224" x2="-122.626" y2="116.224"/>
    <line style="fill: none; fill-opacity:0; stroke-width: 1; stroke: #000000" x1="-159.176" y1="132.224" x2="-137.276" y2="132.224"/>
    <line style="fill: none; fill-opacity:0; stroke-width: 1; stroke: #000000" x1="-159.176" y1="148.224" x2="-122.926" y2="148.224"/>
  </g>
  <g>
    <polygon style="fill: #ffffff" points="17.4924,39.573 27.4924,29.573 120.092,29.573 120.092,81.573 110.092,91.573 17.4924,91.573 17.4924,39.573 "/>
    <polygon style="fill: none; fill-opacity:0; stroke-width: 2; stroke: #000000" points="17.4924,39.573 27.4924,29.573 120.092,29.573 120.092,81.573 110.092,91.573 17.4924,91.573 17.4924,39.573 "/>
    <line style="fill: none; fill-opacity:0; stroke-width: 2; stroke: #000000" x1="17.4924" y1="39.573" x2="110.092" y2="39.573"/>
    <line style="fill: none; fill-opacity:0; stroke-width: 2; stroke: #000000" x1="110.092" y1="39.573" x2="120.092" y2="29.573"/>
    <line style="fill: none; fill-opacity:0; stroke-width: 2; stroke: #000000" x1="110.092" y1="39.573" x2="110.092" y2="91.573"/>
    <text font-size="12.8" style="fill: #000000;text-anchor:start;font-family:sans-serif;font-style:normal;font-weight:normal" x="27.4924" y="62.373">
      <tspan x="27.4924" y="62.373">BlockChain</tspan>
      <tspan x="27.4924" y="78.373">API Gateway</tspan>
    </text>
    <line style="fill: none; fill-opacity:0; stroke-width: 1; stroke: #000000" x1="27.4924" y1="65.023" x2="88.8924" y2="65.023"/>
    <line style="fill: none; fill-opacity:0; stroke-width: 1; stroke: #000000" x1="27.4924" y1="81.023" x2="100.092" y2="81.023"/>
  </g>
  <g>
    <line style="fill: none; fill-opacity:0; stroke-width: 1; stroke-dasharray: 8; stroke: #000000" x1="63.7924" y1="92.49" x2="63.7924" y2="145.49"/>
    <line style="fill: none; fill-opacity:0; stroke-width: 1; stroke-dasharray: 8; stroke: #000000" x1="63.7924" y1="485.49" x2="63.7924" y2="522.854"/>
    <rect style="fill: #ffffff" x="56.7924" y="145.49" width="14" height="340"/>
    <rect style="fill: none; fill-opacity:0; stroke-width: 2; stroke: #000000" x="56.7924" y="145.49" width="14" height="340"/>
  </g>
  <g>
    <line style="fill: none; fill-opacity:0; stroke-width: 2; stroke: #000000" x1="39.7924" y1="155.45" x2="-93.1474" y2="155.135"/>
    <polygon style="fill: #000000" points="39.7806,160.45 55.7924,155.488 39.8043,150.45 "/>
    <polygon style="fill: none; fill-opacity:0; stroke-width: 2; stroke: #000000" points="39.7806,160.45 55.7924,155.488 39.8043,150.45 "/>
    <text font-size="12.7998" style="fill: #000000;text-anchor:middle;font-family:sans-serif;font-style:normal;font-weight:normal" x="1.8138" y="137.104">QueryWork(worker wallet address)</text>
  </g>
  <g>
    <line style="fill: none; fill-opacity:0; stroke-width: 1; stroke-dasharray: 8; stroke: #000000" x1="229.07" y1="93.5414" x2="229.07" y2="174.492"/>
    <line style="fill: none; fill-opacity:0; stroke-width: 1; stroke-dasharray: 8; stroke: #000000" x1="229.07" y1="234.492" x2="229.07" y2="521.936"/>
    <rect style="fill: #ffffff" x="222.07" y="174.492" width="14" height="60"/>
    <rect style="fill: none; fill-opacity:0; stroke-width: 2; stroke: #000000" x="222.07" y="174.492" width="14" height="60"/>
  </g>
  <g>
    <line style="fill: none; fill-opacity:0; stroke-width: 2; stroke: #000000" x1="205.07" y1="174.604" x2="70.7924" y2="175.49"/>
    <polygon style="fill: #000000" points="205.103,179.604 221.07,174.499 205.037,169.604 "/>
    <polygon style="fill: none; fill-opacity:0; stroke-width: 2; stroke: #000000" points="205.103,179.604 221.07,174.499 205.037,169.604 "/>
    <text font-size="12.7998" style="fill: #000000;text-anchor:middle;font-family:sans-serif;font-style:normal;font-weight:normal" x="142.117" y="166.323">IsProfileExist</text>
  </g>
  <g>
    <line style="fill: none; fill-opacity:0; stroke-width: 2; stroke-dasharray: 8; stroke: #000000" x1="87.792" y1="195.378" x2="222.07" y2="194.492"/>
    <polygon style="fill: #000000" points="87.759,190.378 71.7924,195.483 87.825,200.378 "/>
    <polygon style="fill: none; fill-opacity:0; stroke-width: 2; stroke: #000000" points="87.759,190.378 71.7924,195.483 87.825,200.378 "/>
    <text font-size="12.7998" style="fill: #000000;text-anchor:middle;font-family:sans-serif;font-style:normal;font-weight:normal" x="151.612" y="211">worker's profile address</text>
  </g>
  <g>
    <rect style="fill: #ffffff" x="180.07" y="57.5414" width="98" height="36"/>
    <rect style="fill: none; fill-opacity:0; stroke-width: 2; stroke: #000000" x="180.07" y="57.5414" width="98" height="36"/>
    <text font-size="12.8" style="fill: #000000;text-anchor:middle;font-family:sans-serif;font-style:normal;font-weight:normal" x="229.07" y="80.3414">
      <tspan x="229.07" y="80.3414">ProfileCabient</tspan>
    </text>
    <line style="fill: none; fill-opacity:0; stroke-width: 1; stroke: #000000" x1="190.07" y1="82.9914" x2="268.07" y2="82.9914"/>
  </g>
  <g>
    <rect style="fill: #ffffff" x="361.26" y="58.1572" width="136.45" height="36"/>
    <rect style="fill: none; fill-opacity:0; stroke-width: 2; stroke: #000000" x="361.26" y="58.1572" width="136.45" height="36"/>
    <text font-size="12.8" style="fill: #000000;text-anchor:middle;font-family:sans-serif;font-style:normal;font-weight:normal" x="429.485" y="80.9572">
      <tspan x="429.485" y="80.9572">ProfileSmartContract</tspan>
    </text>
    <line style="fill: none; fill-opacity:0; stroke-width: 1; stroke: #000000" x1="371.26" y1="83.6072" x2="487.71" y2="83.6072"/>
  </g>
  <g>
    <line style="fill: none; fill-opacity:0; stroke-width: 1; stroke-dasharray: 8; stroke: #000000" x1="429.485" y1="94.1572" x2="429.485" y2="235"/>
    <line style="fill: none; fill-opacity:0; stroke-width: 1; stroke-dasharray: 8; stroke: #000000" x1="429.485" y1="295" x2="429.485" y2="362.262"/>
    <rect style="fill: #ffffff" x="422.485" y="235" width="14" height="60"/>
    <rect style="fill: none; fill-opacity:0; stroke-width: 2; stroke: #000000" x="422.485" y="235" width="14" height="60"/>
  </g>
  <g>
    <rect style="fill: #ffffff" x="745.3" y="58.0212" width="170.9" height="36"/>
    <rect style="fill: none; fill-opacity:0; stroke-width: 2; stroke: #000000" x="745.3" y="58.0212" width="170.9" height="36"/>
    <text font-size="12.8" style="fill: #000000;text-anchor:middle;font-family:sans-serif;font-style:normal;font-weight:normal" x="830.75" y="80.8212">
      <tspan x="830.75" y="80.8212">QualificationSmartContract</tspan>
    </text>
    <line style="fill: none; fill-opacity:0; stroke-width: 1; stroke: #000000" x1="755.3" y1="83.4712" x2="906.2" y2="83.4712"/>
  </g>
  <g>
    <line style="fill: none; fill-opacity:0; stroke-width: 1; stroke-dasharray: 8; stroke: #000000" x1="830.75" y1="94.0212" x2="830.75" y2="380"/>
    <line style="fill: none; fill-opacity:0; stroke-width: 1; stroke-dasharray: 8; stroke: #000000" x1="830.75" y1="480" x2="830.75" y2="523.186"/>
    <rect style="fill: #ffffff" x="823.75" y="380" width="14" height="100"/>
    <rect style="fill: none; fill-opacity:0; stroke-width: 2; stroke: #000000" x="823.75" y="380" width="14" height="100"/>
  </g>
  <g>
    <line style="fill: none; fill-opacity:0; stroke-width: 2; stroke: #000000" x1="806.75" y1="389.898" x2="70.7924" y2="385.49"/>
    <polygon style="fill: #000000" points="806.72,394.898 822.75,389.994 806.78,384.898 "/>
    <polygon style="fill: none; fill-opacity:0; stroke-width: 2; stroke: #000000" points="806.72,394.898 822.75,389.994 806.78,384.898 "/>
    <text font-size="12.7998" style="fill: #000000;text-anchor:middle;font-family:sans-serif;font-style:normal;font-weight:normal" x="696.199" y="408">GetDigialQualificationInfo</text>
  </g>
  <g>
    <line style="fill: none; fill-opacity:0; stroke-width: 2; stroke-dasharray: 8; stroke: #000000" x1="87.7921" y1="415.592" x2="823.75" y2="420"/>
    <polygon style="fill: #000000" points="87.822,410.592 71.7924,415.496 87.7621,420.592 "/>
    <polygon style="fill: none; fill-opacity:0; stroke-width: 2; stroke: #000000" points="87.822,410.592 71.7924,415.496 87.7621,420.592 "/>
    <text font-size="12.7998" style="fill: #000000;text-anchor:middle;font-family:sans-serif;font-style:normal;font-weight:normal" x="186.732" y="434.07">DigialQualification</text>
  </g>
  <g>
    <rect style="fill: #ffffff" x="543.76" y="57.6618" width="155.9" height="36"/>
    <rect style="fill: none; fill-opacity:0; stroke-width: 2; stroke: #000000" x="543.76" y="57.6618" width="155.9" height="36"/>
    <text font-size="12.8" style="fill: #000000;text-anchor:middle;font-family:sans-serif;font-style:normal;font-weight:normal" x="621.71" y="80.4618">
      <tspan x="621.71" y="80.4618">Ethereum Name Service</tspan>
    </text>
    <line style="fill: none; fill-opacity:0; stroke-width: 1; stroke: #000000" x1="553.76" y1="83.1118" x2="689.66" y2="83.1118"/>
  </g>
  <text font-size="19.1911" style="fill: #000000;text-anchor:start;font-family:sans-serif;font-style:normal;font-weight:700" x="-152.939" y="-0.564128">
    <tspan x="-152.939" y="-0.564128">Query Qualificaiton record for Profile</tspan>
  </text>
  <g>
    <line style="fill: none; fill-opacity:0; stroke-width: 1; stroke-dasharray: 8; stroke: #000000" x1="621.71" y1="95.5788" x2="621.71" y2="326"/>
    <line style="fill: none; fill-opacity:0; stroke-width: 1; stroke-dasharray: 8; stroke: #000000" x1="621.71" y1="366" x2="621.71" y2="517.352"/>
    <rect style="fill: #ffffff" x="614.71" y="326" width="14" height="40"/>
    <rect style="fill: none; fill-opacity:0; stroke-width: 2; stroke: #000000" x="614.71" y="326" width="14" height="40"/>
  </g>
  <g>
    <line style="fill: none; fill-opacity:0; stroke-width: 2; stroke: #000000" x1="597.71" y1="325.984" x2="70.7924" y2="325.49"/>
    <polygon style="fill: #000000" points="597.705,330.984 613.71,325.999 597.715,320.984 "/>
    <polygon style="fill: none; fill-opacity:0; stroke-width: 2; stroke: #000000" points="597.705,330.984 613.71,325.999 597.715,320.984 "/>
    <text font-size="12.7998" style="fill: #000000;text-anchor:middle;font-family:sans-serif;font-style:normal;font-weight:normal" x="484.824" y="321">QueryQualificationAddress</text>
  </g>
  <g>
    <line style="fill: none; fill-opacity:0; stroke-width: 2; stroke-dasharray: 8; stroke: #000000" x1="87.7924" y1="345.506" x2="614.71" y2="346"/>
    <polygon style="fill: #000000" points="87.7971,340.506 71.7924,345.491 87.7877,350.506 "/>
    <polygon style="fill: none; fill-opacity:0; stroke-width: 2; stroke: #000000" points="87.7971,340.506 71.7924,345.491 87.7877,350.506 "/>
    <text font-size="12.7998" style="fill: #000000;text-anchor:middle;font-family:sans-serif;font-style:normal;font-weight:normal" x="351.7" y="359.192">QualificationAddress(s)</text>
  </g>
  <g>
    <line style="fill: none; fill-opacity:0; stroke-width: 2; stroke: #000000" x1="405.485" y1="245.024" x2="70.7924" y2="245.49"/>
    <polygon style="fill: #000000" points="405.492,250.024 421.485,245.001 405.478,240.024 "/>
    <polygon style="fill: none; fill-opacity:0; stroke-width: 2; stroke: #000000" points="405.492,250.024 421.485,245.001 405.478,240.024 "/>
    <text font-size="12.7998" style="fill: #000000;text-anchor:middle;font-family:sans-serif;font-style:normal;font-weight:normal" x="338.986" y="240">GerWorkerInfo</text>
  </g>
  <g>
    <line style="fill: none; fill-opacity:0; stroke-width: 2; stroke-dasharray: 8; stroke: #000000" x1="87.7924" y1="265.466" x2="422.485" y2="265"/>
    <polygon style="fill: #000000" points="87.7854,260.466 71.7924,265.489 87.7993,270.466 "/>
    <polygon style="fill: none; fill-opacity:0; stroke-width: 2; stroke: #000000" points="87.7854,260.466 71.7924,265.489 87.7993,270.466 "/>
    <text font-size="12.7998" style="fill: #000000;text-anchor:middle;font-family:sans-serif;font-style:normal;font-weight:normal" x="182.867" y="285.35">Worker's Info </text>
  </g>
  <g>
    <path style="fill: none; fill-opacity:0; stroke-width: 2; stroke: #000000" d="M 56.7924,375.49 A 25.625,25.625 0 0 0 48.2798,421.862"/>
    <polygon style="fill: #000000" points="54.6109,424.999 43.7572,427.682 47.2938,423.353 45.9523,417.926 "/>
    <polygon style="fill: none; fill-opacity:0; stroke-width: 2; stroke: #000000" points="54.6109,424.999 43.7572,427.682 47.2938,423.353 45.9523,417.926 "/>
  </g>
  <text font-size="12.8" style="fill: #000000;text-anchor:start;font-family:sans-serif;font-style:normal;font-weight:normal" x="-39.0442" y="390.804">
    <tspan x="-39.0442" y="390.804">Repeat</tspan>
    <tspan x="-39.0442" y="406.804">for All</tspan>
    <tspan x="-39.0442" y="422.804">Qualifications</tspan>
  </text>
  <g>
    <line style="fill: none; fill-opacity:0; stroke-width: 2; stroke-dasharray: 8; stroke: #000000" x1="-77.9851" y1="458.309" x2="56.7924" y2="455.49"/>
    <polygon style="fill: #000000" points="-78.0897,453.31 -93.9816,458.643 -77.8806,463.307 "/>
    <polygon style="fill: none; fill-opacity:0; stroke-width: 2; stroke: #000000" points="-78.0897,453.31 -93.9816,458.643 -77.8806,463.307 "/>
    <text font-size="12.7998" style="fill: #000000;text-anchor:middle;font-family:sans-serif;font-style:normal;font-weight:normal" x="-50.0482" y="482.506">Worker Info</text>
  </g>
</svg>
