<?xml version="1.0" encoding="UTF-8" standalone="no"?>
<!DOCTYPE svg PUBLIC "-//W3C//DTD SVG 1.0//EN" "http://www.w3.org/TR/2001/PR-SVG-20010719/DTD/svg10.dtd">
<svg width="72cm" height="47cm" viewBox="150 54 1424 936" xmlns="http://www.w3.org/2000/svg" xmlns:xlink="http://www.w3.org/1999/xlink">
  <g>
    <path style="fill: #ffffff" d="M 308.297 145.876 L 379.93,145.876 C 389.821,145.876 397.839,151.249 397.839,157.876 C 397.839,164.504 389.821,169.876 379.93,169.876 L 308.297,169.876 C 298.406,169.876 290.389,164.504 290.389,157.876 C 290.389,151.249 298.406,145.876 308.297,145.876z"/>
    <path style="fill: none; fill-opacity:0; stroke-width: 2; stroke: #000000" d="M 308.297 145.876 L 379.93,145.876 C 389.821,145.876 397.839,151.249 397.839,157.876 C 397.839,164.504 389.821,169.876 379.93,169.876 L 308.297,169.876 C 298.406,169.876 290.389,164.504 290.389,157.876 C 290.389,151.249 298.406,145.876 308.297,145.876"/>
    <text font-size="12.7998" style="fill: #000000;text-anchor:middle;font-family:sans-serif;font-style:normal;font-weight:normal" x="344.114" y="161.876">
      <tspan x="344.114" y="161.876">start</tspan>
    </text>
  </g>
  <g>
    <polygon style="fill: #ffffff" points="502.084,107.741 648.478,107.741 617.177,193.741 470.783,193.741 "/>
    <polygon style="fill: none; fill-opacity:0; stroke-width: 2; stroke: #000000" points="502.084,107.741 648.478,107.741 617.177,193.741 470.783,193.741 "/>
    <text font-size="12.7998" style="fill: #000000;text-anchor:start;font-family:sans-serif;font-style:normal;font-weight:normal" x="506.169" y="138.641">
      <tspan x="506.169" y="138.641">Parameter:</tspan>
      <tspan x="506.169" y="154.641">1.walletaddress</tspan>
      <tspan x="506.169" y="170.641">2.qname</tspan>
    </text>
  </g>
  <g>
    <polyline style="fill: none; fill-opacity:0; stroke-width: 2; stroke: #000000" points="485.817,150.741 441.828,150.741 441.828,157.876 407.575,157.876 "/>
    <polygon style="fill: #000000" points="400.075,157.876 410.075,152.876 407.575,157.876 410.075,162.876 "/>
    <polygon style="fill: none; fill-opacity:0; stroke-width: 2; stroke: #000000" points="400.075,157.876 410.075,152.876 407.575,157.876 410.075,162.876 "/>
  </g>
  <g>
    <line style="fill: none; fill-opacity:0; stroke-width: 2; stroke: #000000" x1="344.193" y1="170.883" x2="344.463" y2="215.027"/>
    <polygon style="fill: #000000" points="344.509,222.527 339.448,212.558 344.463,215.027 349.448,212.496 "/>
    <polygon style="fill: none; fill-opacity:0; stroke-width: 2; stroke: #000000" points="344.509,222.527 339.448,212.558 344.463,215.027 349.448,212.496 "/>
  </g>
  <g>
    <polygon style="fill: #ffffff" points="345.658,412.345 426.721,452.876 345.658,493.408 264.594,452.876 "/>
    <polygon style="fill: none; fill-opacity:0; stroke-width: 2; stroke: #000000" points="345.658,412.345 426.721,452.876 345.658,493.408 264.594,452.876 "/>
    <text font-size="12.7998" style="fill: #000000;text-anchor:middle;font-family:sans-serif;font-style:normal;font-weight:normal" x="345.658" y="448.776">
      <tspan x="345.658" y="448.776">Pub Dir</tspan>
      <tspan x="345.658" y="464.776">If exists</tspan>
    </text>
  </g>
  <g>
    <line style="fill: none; fill-opacity:0; stroke-width: 2; stroke: #000000" x1="345.067" y1="372.329" x2="345.284" y2="401.899"/>
    <polygon style="fill: #000000" points="345.339,409.399 340.265,399.436 345.284,401.899 350.265,399.362 "/>
    <polygon style="fill: none; fill-opacity:0; stroke-width: 2; stroke: #000000" points="345.339,409.399 340.265,399.436 345.284,401.899 350.265,399.362 "/>
  </g>
  <g>
    <line style="fill: none; fill-opacity:0; stroke-width: 2; stroke: #000000" x1="346.831" y1="493.815" x2="347.442" y2="515.143"/>
    <polygon style="fill: #000000" points="347.657,522.639 342.372,512.787 347.442,515.143 352.368,512.5 "/>
    <polygon style="fill: none; fill-opacity:0; stroke-width: 2; stroke: #000000" points="347.657,522.639 342.372,512.787 347.442,515.143 352.368,512.5 "/>
  </g>
  <g>
    <rect style="fill: #ffffff" x="496.783" y="418.212" width="94.35" height="70"/>
    <rect style="fill: none; fill-opacity:0; stroke-width: 2; stroke: #000000" x="496.783" y="418.212" width="94.35" height="70"/>
    <text font-size="12.7998" style="fill: #000000;text-anchor:start;font-family:sans-serif;font-style:normal;font-weight:normal" x="505.783" y="441.112">
      <tspan x="505.783" y="441.112">return</tspan>
      <tspan x="505.783" y="457.112">1.erro - 1</tspan>
      <tspan x="505.783" y="473.112">2.asynckey</tspan>
    </text>
  </g>
  <g>
    <line style="fill: none; fill-opacity:0; stroke-width: 2; stroke: #000000" x1="427.721" y1="453.015" x2="486.045" y2="453.114"/>
    <polygon style="fill: #000000" points="493.545,453.126 483.536,458.109 486.045,453.114 483.553,448.109 "/>
    <polygon style="fill: none; fill-opacity:0; stroke-width: 2; stroke: #000000" points="493.545,453.126 483.536,458.109 486.045,453.114 483.553,448.109 "/>
  </g>
  <text font-size="12.7998" style="fill: #000000;text-anchor:start;font-family:sans-serif;font-style:normal;font-weight:normal" x="358.567" y="508.876">
    <tspan x="358.567" y="508.876">Y</tspan>
  </text>
  <text font-size="12.7998" style="fill: #000000;text-anchor:start;font-family:sans-serif;font-style:normal;font-weight:normal" x="434.316" y="444.134">
    <tspan x="434.316" y="444.134">N</tspan>
  </text>
  <g>
    <path style="fill: #ffffff" d="M 550.376 362.876 L 629.226,362.876 C 640.113,362.876 648.939,367.801 648.939,373.876 C 648.939,379.951 640.113,384.876 629.226,384.876 L 550.376,384.876 C 539.489,384.876 530.664,379.951 530.664,373.876 C 530.664,367.801 539.489,362.876 550.376,362.876z"/>
    <path style="fill: none; fill-opacity:0; stroke-width: 2; stroke: #000000" d="M 550.376 362.876 L 629.226,362.876 C 640.113,362.876 648.939,367.801 648.939,373.876 C 648.939,379.951 640.113,384.876 629.226,384.876 L 550.376,384.876 C 539.489,384.876 530.664,379.951 530.664,373.876 C 530.664,367.801 539.489,362.876 550.376,362.876"/>
    <text font-size="12.7998" style="fill: #000000;text-anchor:middle;font-family:sans-serif;font-style:normal;font-weight:normal" x="589.801" y="377.876">
      <tspan x="589.801" y="377.876">end (error)</tspan>
    </text>
  </g>
  <g>
    <line style="fill: none; fill-opacity:0; stroke-width: 2; stroke: #000000" x1="564.759" y1="417.214" x2="578.013" y2="394.276"/>
    <polygon style="fill: #000000" points="581.766,387.782 581.092,398.942 578.013,394.276 572.433,393.939 "/>
    <polygon style="fill: none; fill-opacity:0; stroke-width: 2; stroke: #000000" points="581.766,387.782 581.092,398.942 578.013,394.276 572.433,393.939 "/>
  </g>
  <text font-size="16.9333" style="fill: #000000;text-anchor:start;font-family:sans-serif;font-style:normal;font-weight:700" x="150.9" y="70.75">
    <tspan x="150.9" y="70.75">Mobile API - GET QUALIFICATION DIGIT CERT</tspan>
  </text>
  <g>
    <polygon style="fill: #ffffff" points="344.522,224.763 486.122,298.182 344.522,371.602 202.923,298.182 "/>
    <polygon style="fill: none; fill-opacity:0; stroke-width: 2; stroke: #000000" points="344.522,224.763 486.122,298.182 344.522,371.602 202.923,298.182 "/>
    <text font-size="12.7998" style="fill: #000000;text-anchor:middle;font-family:sans-serif;font-style:normal;font-weight:normal" x="344.522" y="286.082">
      <tspan x="344.522" y="286.082">Walletaddress:</tspan>
      <tspan x="344.522" y="302.082">1.Format checking &amp;&amp;</tspan>
      <tspan x="344.522" y="318.082">2.!=address(0)</tspan>
    </text>
  </g>
  <g>
    <rect style="fill: #ffffff" x="539.349" y="263.126" width="94.35" height="70"/>
    <rect style="fill: none; fill-opacity:0; stroke-width: 2; stroke: #000000" x="539.349" y="263.126" width="94.35" height="70"/>
    <text font-size="12.7998" style="fill: #000000;text-anchor:start;font-family:sans-serif;font-style:normal;font-weight:normal" x="548.349" y="286.026">
      <tspan x="548.349" y="286.026">return</tspan>
      <tspan x="548.349" y="302.026">1.erro - 4</tspan>
      <tspan x="548.349" y="318.026">2.asynckey</tspan>
    </text>
  </g>
  <g>
    <line style="fill: none; fill-opacity:0; stroke-width: 2; stroke: #000000" x1="487.122" y1="298.149" x2="528.621" y2="298.14"/>
    <polygon style="fill: #000000" points="536.121,298.138 526.122,303.14 528.621,298.14 526.12,293.14 "/>
    <polygon style="fill: none; fill-opacity:0; stroke-width: 2; stroke: #000000" points="536.121,298.138 526.122,303.14 528.621,298.14 526.12,293.14 "/>
  </g>
  <g>
    <line style="fill: none; fill-opacity:0; stroke-width: 2; stroke: #000000" x1="347.641" y1="633.395" x2="347.605" y2="657.396"/>
    <polygon style="fill: #000000" points="347.594,664.896 342.609,654.889 347.605,657.396 352.609,654.904 "/>
    <polygon style="fill: none; fill-opacity:0; stroke-width: 2; stroke: #000000" points="347.594,664.896 342.609,654.889 347.605,657.396 352.609,654.904 "/>
  </g>
  <g>
    <line style="fill: none; fill-opacity:0; stroke-width: 2; stroke: #000000" x1="588.081" y1="334.124" x2="588.862" y2="352.156"/>
    <polygon style="fill: #000000" points="589.186,359.649 583.758,349.875 588.862,352.156 593.749,349.442 "/>
    <polygon style="fill: none; fill-opacity:0; stroke-width: 2; stroke: #000000" points="589.186,359.649 583.758,349.875 588.862,352.156 593.749,349.442 "/>
  </g>
  <g>
    <polygon style="fill: #ffffff" points="347.721,524.875 476.053,578.658 347.721,632.441 219.389,578.658 "/>
    <polygon style="fill: none; fill-opacity:0; stroke-width: 2; stroke: #000000" points="347.721,524.875 476.053,578.658 347.721,632.441 219.389,578.658 "/>
    <text font-size="12.7998" style="fill: #000000;text-anchor:middle;font-family:sans-serif;font-style:normal;font-weight:normal" x="347.721" y="574.558">
      <tspan x="347.721" y="574.558">WorkerProfileToken</tspan>
      <tspan x="347.721" y="590.558">BalanceOf==1</tspan>
    </text>
  </g>
  <g>
    <rect style="fill: #ffffff" x="262.475" y="668.126" width="170.15" height="54"/>
    <rect style="fill: none; fill-opacity:0; stroke-width: 2; stroke: #000000" x="262.475" y="668.126" width="170.15" height="54"/>
    <text font-size="12.7998" style="fill: #000000;text-anchor:middle;font-family:sans-serif;font-style:normal;font-weight:normal" x="347.55" y="691.026">
      <tspan x="347.55" y="691.026">WorkerProfileToken:</tspan>
      <tspan x="347.55" y="707.026">tokenOwnerByIndex(0)</tspan>
    </text>
  </g>
  <text font-size="12.7998" style="fill: #000000;text-anchor:start;font-family:sans-serif;font-style:normal;font-weight:normal" x="358.567" y="648.026">
    <tspan x="358.567" y="648.026">Y</tspan>
  </text>
  <g>
    <rect style="fill: #ffffff" x="274.766" y="775.126" width="146.65" height="70"/>
    <rect style="fill: none; fill-opacity:0; stroke-width: 2; stroke: #000000" x="274.766" y="775.126" width="146.65" height="70"/>
    <text font-size="12.7998" style="fill: #000000;text-anchor:start;font-family:sans-serif;font-style:normal;font-weight:normal" x="283.766" y="798.026">
      <tspan x="283.766" y="798.026">WorkerProfileLogic:</tspan>
      <tspan x="283.766" y="814.026">let i:=qlength()</tspan>
      <tspan x="283.766" y="830.026">let z:=0</tspan>
    </text>
  </g>
  <g>
    <line style="fill: none; fill-opacity:0; stroke-width: 2; stroke: #000000" x1="347.682" y1="723.125" x2="347.876" y2="764.39"/>
    <polygon style="fill: #000000" points="347.911,771.89 342.864,761.913 347.876,764.39 352.864,761.866 "/>
    <polygon style="fill: none; fill-opacity:0; stroke-width: 2; stroke: #000000" points="347.911,771.89 342.864,761.913 347.876,764.39 352.864,761.866 "/>
  </g>
  <g>
    <rect style="fill: #ffffff" x="741.13" y="146.126" width="193.2" height="54"/>
    <rect style="fill: none; fill-opacity:0; stroke-width: 2; stroke: #000000" x="741.13" y="146.126" width="193.2" height="54"/>
    <text font-size="12.7998" style="fill: #000000;text-anchor:middle;font-family:sans-serif;font-style:normal;font-weight:normal" x="837.73" y="169.026">
      <tspan x="837.73" y="169.026">WorkerProfileLogic:</tspan>
      <tspan x="837.73" y="185.026">getQualificaitonByIndex(z)</tspan>
    </text>
  </g>
  <g>
    <polygon style="fill: #ffffff" points="347.424,885.126 403.282,920.839 347.424,956.552 291.567,920.839 "/>
    <polygon style="fill: none; fill-opacity:0; stroke-width: 2; stroke: #000000" points="347.424,885.126 403.282,920.839 347.424,956.552 291.567,920.839 "/>
    <text font-size="12.7998" style="fill: #000000;text-anchor:middle;font-family:sans-serif;font-style:normal;font-weight:normal" x="347.424" y="924.739">
      <tspan x="347.424" y="924.739">if i==0</tspan>
    </text>
  </g>
  <g>
    <line style="fill: none; fill-opacity:0; stroke-width: 2; stroke: #000000" x1="347.875" y1="846.076" x2="347.703" y2="874.526"/>
    <polygon style="fill: #000000" points="347.658,882.026 342.718,871.996 347.703,874.526 352.718,872.056 "/>
    <polygon style="fill: none; fill-opacity:0; stroke-width: 2; stroke: #000000" points="347.658,882.026 342.718,871.996 347.703,874.526 352.718,872.056 "/>
  </g>
  <text font-size="12.7998" style="fill: #000000;text-anchor:start;font-family:sans-serif;font-style:normal;font-weight:normal" x="407.153" y="958.001">
    <tspan x="407.153" y="958.001">N</tspan>
  </text>
  <g>
    <polyline style="fill: none; fill-opacity:0; stroke-width: 2; stroke: #000000" points="375.353,938.696 375.353,962.533 668.669,962.533 668.669,111.237 837.73,111.237 837.73,136.39 "/>
    <polygon style="fill: #000000" points="837.73,143.89 832.73,133.89 837.73,136.39 842.73,133.89 "/>
    <polygon style="fill: none; fill-opacity:0; stroke-width: 2; stroke: #000000" points="837.73,143.89 832.73,133.89 837.73,136.39 842.73,133.89 "/>
  </g>
  <g>
    <rect style="fill: #ffffff" x="748.994" y="925.126" width="69.35" height="54"/>
    <rect style="fill: none; fill-opacity:0; stroke-width: 2; stroke: #000000" x="748.994" y="925.126" width="69.35" height="54"/>
    <text font-size="12.7998" style="fill: #000000;text-anchor:middle;font-family:sans-serif;font-style:normal;font-weight:normal" x="783.669" y="948.026">
      <tspan x="783.669" y="948.026">z:=z+1</tspan>
      <tspan x="783.669" y="964.026">i:=i-1</tspan>
    </text>
  </g>
  <g>
    <polyline style="fill: none; fill-opacity:0; stroke-width: 2; stroke: #000000" points="744.525,293.222 704.669,293.222 704.669,938.626 739.258,938.626 "/>
    <polygon style="fill: #000000" points="746.758,938.626 736.758,943.626 739.258,938.626 736.758,933.626 "/>
    <polygon style="fill: none; fill-opacity:0; stroke-width: 2; stroke: #000000" points="746.758,938.626 736.758,943.626 739.258,938.626 736.758,933.626 "/>
  </g>
  <g>
    <polyline style="fill: none; fill-opacity:0; stroke-width: 2; stroke: #000000" points="766.332,979.126 766.332,989 347.424,989 347.424,966.288 "/>
    <polygon style="fill: #000000" points="347.424,958.788 352.424,968.788 347.424,966.288 342.424,968.788 "/>
    <polygon style="fill: none; fill-opacity:0; stroke-width: 2; stroke: #000000" points="347.424,958.788 352.424,968.788 347.424,966.288 342.424,968.788 "/>
  </g>
  <text font-size="12.7998" style="fill: #000000;text-anchor:start;font-family:sans-serif;font-style:normal;font-weight:normal" x="408.685" y="905.93">
    <tspan x="408.685" y="905.93">Y</tspan>
  </text>
  <g>
    <rect style="fill: #ffffff" x="494.411" y="541.205" width="94.35" height="70"/>
    <rect style="fill: none; fill-opacity:0; stroke-width: 2; stroke: #000000" x="494.411" y="541.205" width="94.35" height="70"/>
    <text font-size="12.7998" style="fill: #000000;text-anchor:start;font-family:sans-serif;font-style:normal;font-weight:normal" x="503.411" y="564.105">
      <tspan x="503.411" y="564.105">return</tspan>
      <tspan x="503.411" y="580.105">1.erro - 2</tspan>
      <tspan x="503.411" y="596.105">2.asynckey</tspan>
    </text>
  </g>
  <g>
    <line style="fill: none; fill-opacity:0; stroke-width: 2; stroke: #000000" x1="476.053" y1="578.658" x2="483.699" y2="578.372"/>
    <polygon style="fill: #000000" points="491.193,578.091 481.387,583.462 483.699,578.372 481.013,573.469 "/>
    <polygon style="fill: none; fill-opacity:0; stroke-width: 2; stroke: #000000" points="491.193,578.091 481.387,583.462 483.699,578.372 481.013,573.469 "/>
  </g>
  <text font-size="12.7998" style="fill: #000000;text-anchor:start;font-family:sans-serif;font-style:normal;font-weight:normal" x="473.303" y="563.276">
    <tspan x="473.303" y="563.276">N</tspan>
  </text>
  <g>
    <polyline style="fill: none; fill-opacity:0; stroke-width: 2; stroke: #000000" points="588.761,576.205 629.226,576.205 629.226,394.612 "/>
    <polygon style="fill: #000000" points="629.226,387.112 634.226,397.112 629.226,394.612 624.226,397.112 "/>
    <polygon style="fill: none; fill-opacity:0; stroke-width: 2; stroke: #000000" points="629.226,387.112 634.226,397.112 629.226,394.612 624.226,397.112 "/>
  </g>
  <g>
    <polygon style="fill: #ffffff" points="840.95,230.186 936.374,293.222 840.95,356.258 745.525,293.222 "/>
    <polygon style="fill: none; fill-opacity:0; stroke-width: 2; stroke: #000000" points="840.95,230.186 936.374,293.222 840.95,356.258 745.525,293.222 "/>
    <text font-size="12.7998" style="fill: #000000;text-anchor:middle;font-family:sans-serif;font-style:normal;font-weight:normal" x="840.95" y="297.122">
      <tspan x="840.95" y="297.122">if qlname==qname</tspan>
    </text>
  </g>
  <g>
    <line style="fill: none; fill-opacity:0; stroke-width: 2; stroke: #000000" x1="838.48" y1="201.112" x2="839.002" y2="220.561"/>
    <polygon style="fill: #000000" points="839.203,228.058 833.937,218.196 839.002,220.561 843.933,217.928 "/>
    <polygon style="fill: none; fill-opacity:0; stroke-width: 2; stroke: #000000" points="839.203,228.058 833.937,218.196 839.002,220.561 843.933,217.928 "/>
  </g>
  <text font-size="12.7998" style="fill: #000000;text-anchor:start;font-family:sans-serif;font-style:normal;font-weight:normal" x="731.9" y="285.9">
    <tspan x="731.9" y="285.9">N</tspan>
  </text>
  <g>
    <rect style="fill: #ffffff" x="744.9" y="379" width="193.2" height="54"/>
    <rect style="fill: none; fill-opacity:0; stroke-width: 2; stroke: #000000" x="744.9" y="379" width="193.2" height="54"/>
    <text font-size="12.7998" style="fill: #000000;text-anchor:middle;font-family:sans-serif;font-style:normal;font-weight:normal" x="841.5" y="401.9">
      <tspan x="841.5" y="401.9">Pub Dir:</tspan>
      <tspan x="841.5" y="417.9">get Org ENS registary</tspan>
    </text>
  </g>
  <g>
    <polygon style="fill: #ffffff" points="976.378,141 1076.05,141 1050.57,211 950.9,211 "/>
    <polygon style="fill: none; fill-opacity:0; stroke-width: 2; stroke: #000000" points="976.378,141 1076.05,141 1050.57,211 950.9,211 "/>
    <text font-size="12.7998" style="fill: #000000;text-anchor:start;font-family:sans-serif;font-style:normal;font-weight:normal" x="983.374" y="163.9">
      <tspan x="983.374" y="163.9"></tspan>
      <tspan x="983.374" y="179.9">1.qlname</tspan>
      <tspan x="983.374" y="195.9">2.org</tspan>
    </text>
  </g>
  <g>
    <line style="fill: none; fill-opacity:0; stroke-width: 2; stroke: #000000" x1="935.321" y1="174.722" x2="953.571" y2="175.02"/>
    <polygon style="fill: #000000" points="961.07,175.143 950.99,179.979 953.571,175.02 951.153,169.98 "/>
    <polygon style="fill: none; fill-opacity:0; stroke-width: 2; stroke: #000000" points="961.07,175.143 950.99,179.979 953.571,175.02 951.153,169.98 "/>
  </g>
  <g>
    <polyline style="fill: none; fill-opacity:0; stroke-width: 2; stroke: #000000" points="1000.74,211 1000.74,252.111 936.374,252.111 936.374,283.486 "/>
    <polygon style="fill: #000000" points="936.374,290.986 931.374,280.986 936.374,283.486 941.374,280.986 "/>
    <polygon style="fill: none; fill-opacity:0; stroke-width: 2; stroke: #000000" points="936.374,290.986 931.374,280.986 936.374,283.486 941.374,280.986 "/>
  </g>
  <g>
    <polyline style="fill: none; fill-opacity:0; stroke-width: 2; stroke: #000000" points="1000.74,211 1000.74,406 947.836,406 "/>
    <polygon style="fill: #000000" points="940.336,406 950.336,401 947.836,406 950.336,411 "/>
    <polygon style="fill: none; fill-opacity:0; stroke-width: 2; stroke: #000000" points="940.336,406 950.336,401 947.836,406 950.336,411 "/>
  </g>
  <g>
    <line style="fill: none; fill-opacity:0; stroke-width: 2; stroke: #000000" x1="840.95" y1="356.258" x2="841.082" y2="368.273"/>
    <polygon style="fill: #000000" points="841.165,375.772 836.055,365.828 841.082,368.273 846.055,365.717 "/>
    <polygon style="fill: none; fill-opacity:0; stroke-width: 2; stroke: #000000" points="841.165,375.772 836.055,365.828 841.082,368.273 846.055,365.717 "/>
  </g>
  <g>
    <rect style="fill: #ffffff" x="727.675" y="465" width="233.65" height="54"/>
    <rect style="fill: none; fill-opacity:0; stroke-width: 2; stroke: #000000" x="727.675" y="465" width="233.65" height="54"/>
    <text font-size="12.7998" style="fill: #000000;text-anchor:middle;font-family:sans-serif;font-style:normal;font-weight:normal" x="844.5" y="487.9">
      <tspan x="844.5" y="487.9">get hashname with</tspan>
      <tspan x="844.5" y="503.9">hname:&lt;walletaddress&gt;.qname</tspan>
    </text>
  </g>
  <g>
    <line style="fill: none; fill-opacity:0; stroke-width: 2; stroke: #000000" x1="842.476" y1="433.988" x2="843.184" y2="454.282"/>
    <polygon style="fill: #000000" points="843.446,461.777 838.1,451.958 843.184,454.282 848.094,451.609 "/>
    <polygon style="fill: none; fill-opacity:0; stroke-width: 2; stroke: #000000" points="843.446,461.777 838.1,451.958 843.184,454.282 848.094,451.609 "/>
  </g>
  <g>
    <polygon style="fill: #ffffff" points="845.106,559.337 947.135,615.399 845.106,671.461 743.077,615.399 "/>
    <polygon style="fill: none; fill-opacity:0; stroke-width: 2; stroke: #000000" points="845.106,559.337 947.135,615.399 845.106,671.461 743.077,615.399 "/>
    <text font-size="12.7998" style="fill: #000000;text-anchor:middle;font-family:sans-serif;font-style:normal;font-weight:normal" x="845.106" y="611.299">
      <tspan x="845.106" y="611.299">Org Dir:</tspan>
      <tspan x="845.106" y="627.299">Is exists hname</tspan>
    </text>
  </g>
  <g>
    <line style="fill: none; fill-opacity:0; stroke-width: 2; stroke: #000000" x1="844.5" y1="519" x2="844.687" y2="548.791"/>
    <polygon style="fill: #000000" points="844.734,556.291 839.672,546.323 844.687,548.791 849.671,546.26 "/>
    <polygon style="fill: none; fill-opacity:0; stroke-width: 2; stroke: #000000" points="844.734,556.291 839.672,546.323 844.687,548.791 849.671,546.26 "/>
  </g>
  <g>
    <rect style="fill: #ffffff" x="749.65" y="709" width="188.7" height="54"/>
    <rect style="fill: none; fill-opacity:0; stroke-width: 2; stroke: #000000" x="749.65" y="709" width="188.7" height="54"/>
    <text font-size="12.7998" style="fill: #000000;text-anchor:middle;font-family:sans-serif;font-style:normal;font-weight:normal" x="844" y="731.9">
      <tspan x="844" y="731.9">Org DIr:</tspan>
      <tspan x="844" y="747.9">resovle hname to address</tspan>
    </text>
  </g>
  <g>
    <line style="fill: none; fill-opacity:0; stroke-width: 2; stroke: #000000" x1="844.585" y1="672.174" x2="844.346" y2="698.278"/>
    <polygon style="fill: #000000" points="844.277,705.778 839.369,695.733 844.346,698.278 849.369,695.824 "/>
    <polygon style="fill: none; fill-opacity:0; stroke-width: 2; stroke: #000000" points="844.277,705.778 839.369,695.733 844.346,698.278 849.369,695.824 "/>
  </g>
  <g>
    <polygon style="fill: #ffffff" points="843.904,806.92 904.957,843.522 843.904,880.124 782.851,843.522 "/>
    <polygon style="fill: none; fill-opacity:0; stroke-width: 2; stroke: #000000" points="843.904,806.92 904.957,843.522 843.904,880.124 782.851,843.522 "/>
    <text font-size="12.7998" style="fill: #000000;text-anchor:middle;font-family:sans-serif;font-style:normal;font-weight:normal" x="843.904" y="847.422">
      <tspan x="843.904" y="847.422">If a != 0</tspan>
    </text>
  </g>
  <g>
    <line style="fill: none; fill-opacity:0; stroke-width: 2; stroke: #000000" x1="843.975" y1="763.996" x2="843.946" y2="796.3"/>
    <polygon style="fill: #000000" points="843.939,803.8 838.948,793.796 843.946,796.3 848.948,793.805 "/>
    <polygon style="fill: none; fill-opacity:0; stroke-width: 2; stroke: #000000" points="843.939,803.8 838.948,793.796 843.946,796.3 848.948,793.805 "/>
  </g>
  <g>
    <rect style="fill: #ffffff" x="1001.9" y="579" width="94.35" height="70"/>
    <rect style="fill: none; fill-opacity:0; stroke-width: 2; stroke: #000000" x="1001.9" y="579" width="94.35" height="70"/>
    <text font-size="12.7998" style="fill: #000000;text-anchor:start;font-family:sans-serif;font-style:normal;font-weight:normal" x="1010.9" y="601.9">
      <tspan x="1010.9" y="601.9">return</tspan>
      <tspan x="1010.9" y="617.9">1.erro - 6</tspan>
      <tspan x="1010.9" y="633.9">2.asynckey</tspan>
    </text>
  </g>
  <g>
    <rect style="fill: #ffffff" x="474.9" y="884" width="94.35" height="70"/>
    <rect style="fill: none; fill-opacity:0; stroke-width: 2; stroke: #000000" x="474.9" y="884" width="94.35" height="70"/>
    <text font-size="12.7998" style="fill: #000000;text-anchor:start;font-family:sans-serif;font-style:normal;font-weight:normal" x="483.9" y="906.9">
      <tspan x="483.9" y="906.9">return</tspan>
      <tspan x="483.9" y="922.9">1.erro - 5</tspan>
      <tspan x="483.9" y="938.9">2.asynckey</tspan>
    </text>
  </g>
  <g>
    <line style="fill: none; fill-opacity:0; stroke-width: 2; stroke: #000000" x1="403.282" y1="920.839" x2="464.16" y2="919.897"/>
    <polygon style="fill: #000000" points="471.659,919.781 461.738,924.935 464.16,919.897 461.583,914.936 "/>
    <polygon style="fill: none; fill-opacity:0; stroke-width: 2; stroke: #000000" points="471.659,919.781 461.738,924.935 464.16,919.897 461.583,914.936 "/>
  </g>
  <g>
    <polyline style="fill: none; fill-opacity:0; stroke-width: 2; stroke: #000000" points="569.25,919 629.226,919 629.226,394.612 "/>
    <polygon style="fill: #000000" points="629.226,387.112 634.226,397.112 629.226,394.612 624.226,397.112 "/>
    <polygon style="fill: none; fill-opacity:0; stroke-width: 2; stroke: #000000" points="629.226,387.112 634.226,397.112 629.226,394.612 624.226,397.112 "/>
  </g>
  <g>
    <line style="fill: none; fill-opacity:0; stroke-width: 2; stroke: #000000" x1="947.135" y1="615.399" x2="991.356" y2="614.792"/>
    <polygon style="fill: #000000" points="998.856,614.689 988.925,619.826 991.356,614.792 988.788,609.827 "/>
    <polygon style="fill: none; fill-opacity:0; stroke-width: 2; stroke: #000000" points="998.856,614.689 988.925,619.826 991.356,614.792 988.788,609.827 "/>
  </g>
  <g>
    <rect style="fill: #ffffff" x="1001.9" y="809" width="94.35" height="70"/>
    <rect style="fill: none; fill-opacity:0; stroke-width: 2; stroke: #000000" x="1001.9" y="809" width="94.35" height="70"/>
    <text font-size="12.7998" style="fill: #000000;text-anchor:start;font-family:sans-serif;font-style:normal;font-weight:normal" x="1010.9" y="831.9">
      <tspan x="1010.9" y="831.9">return</tspan>
      <tspan x="1010.9" y="847.9">1.erro - 7</tspan>
      <tspan x="1010.9" y="863.9">2.asynckey</tspan>
    </text>
  </g>
  <g>
    <line style="fill: none; fill-opacity:0; stroke-width: 2; stroke: #000000" x1="904.957" y1="843.522" x2="991.162" y2="843.808"/>
    <polygon style="fill: #000000" points="998.662,843.833 988.645,848.8 991.162,843.808 988.679,838.8 "/>
    <polygon style="fill: none; fill-opacity:0; stroke-width: 2; stroke: #000000" points="998.662,843.833 988.645,848.8 991.162,843.808 988.679,838.8 "/>
  </g>
  <g>
    <rect style="fill: #ffffff" x="1161.28" y="143" width="225.45" height="54"/>
    <rect style="fill: none; fill-opacity:0; stroke-width: 2; stroke: #000000" x="1161.28" y="143" width="225.45" height="54"/>
    <text font-size="12.7998" style="fill: #000000;text-anchor:middle;font-family:sans-serif;font-style:normal;font-weight:normal" x="1274" y="165.9">
      <tspan x="1274" y="165.9">Org Dir:</tspan>
      <tspan x="1274" y="181.9">get Qualificaiton Token address</tspan>
    </text>
  </g>
  <g>
    <polyline style="fill: none; fill-opacity:0; stroke-width: 2; stroke: #000000" points="843.904,880.124 843.904,946.881 1140.46,946.881 1140.46,170 1151.54,170 "/>
    <polygon style="fill: #000000" points="1159.04,170 1149.04,175 1151.54,170 1149.04,165 "/>
    <polygon style="fill: none; fill-opacity:0; stroke-width: 2; stroke: #000000" points="1159.04,170 1149.04,175 1151.54,170 1149.04,165 "/>
  </g>
  <g>
    <line style="fill: none; fill-opacity:0; stroke-width: 2; stroke: #000000" x1="1274.19" y1="198.004" x2="1274.36" y2="222.26"/>
    <polygon style="fill: #000000" points="1274.41,229.76 1269.35,219.795 1274.36,222.26 1279.35,219.725 "/>
    <polygon style="fill: none; fill-opacity:0; stroke-width: 2; stroke: #000000" points="1274.41,229.76 1269.35,219.795 1274.36,222.26 1279.35,219.725 "/>
  </g>
  <g>
    <polygon style="fill: #ffffff" points="1275.59,479.391 1394.01,535.81 1275.59,592.229 1157.17,535.81 "/>
    <polygon style="fill: none; fill-opacity:0; stroke-width: 2; stroke: #000000" points="1275.59,479.391 1394.01,535.81 1275.59,592.229 1157.17,535.81 "/>
    <text font-size="12.7998" style="fill: #000000;text-anchor:middle;font-family:sans-serif;font-style:normal;font-weight:normal" x="1275.59" y="531.71">
      <tspan x="1275.59" y="531.71">QualificationToken</tspan>
      <tspan x="1275.59" y="547.71">IsOwner</tspan>
    </text>
  </g>
  <g>
    <polygon style="fill: #ffffff" points="976.454,718.272 1067.03,718.272 1052.47,758.272 961.895,758.272 "/>
    <polygon style="fill: none; fill-opacity:0; stroke-width: 2; stroke: #000000" points="976.454,718.272 1067.03,718.272 1052.47,758.272 961.895,758.272 "/>
    <text font-size="12.7998" style="fill: #000000;text-anchor:middle;font-family:sans-serif;font-style:normal;font-weight:normal" x="1014.46" y="742.172">
      <tspan x="1014.46" y="742.172">a:address</tspan>
    </text>
  </g>
  <g>
    <line style="fill: none; fill-opacity:0; stroke-width: 2; stroke: #000000" x1="939.354" y1="737.271" x2="959.021" y2="737.533"/>
    <polygon style="fill: #000000" points="966.52,737.633 956.454,742.499 959.021,737.533 956.588,732.5 "/>
    <polygon style="fill: none; fill-opacity:0; stroke-width: 2; stroke: #000000" points="966.52,737.633 956.454,742.499 959.021,737.533 956.588,732.5 "/>
  </g>
  <g>
    <polygon style="fill: #ffffff" points="1438.92,405 1573.67,405 1554.01,459 1419.27,459 "/>
    <polygon style="fill: none; fill-opacity:0; stroke-width: 2; stroke: #000000" points="1438.92,405 1573.67,405 1554.01,459 1419.27,459 "/>
    <text font-size="12.7998" style="fill: #000000;text-anchor:start;font-family:sans-serif;font-style:normal;font-weight:normal" x="1445.92" y="427.9">
      <tspan x="1445.92" y="427.9">1.a</tspan>
      <tspan x="1445.92" y="443.9">2.walletaddress</tspan>
    </text>
  </g>
  <g>
    <rect style="fill: #ffffff" x="1161.9" y="233" width="225.45" height="54"/>
    <rect style="fill: none; fill-opacity:0; stroke-width: 2; stroke: #000000" x="1161.9" y="233" width="225.45" height="54"/>
    <text font-size="12.7998" style="fill: #000000;text-anchor:middle;font-family:sans-serif;font-style:normal;font-weight:normal" x="1274.62" y="255.9">
      <tspan x="1274.62" y="255.9">QualificaitonToken:</tspan>
      <tspan x="1274.62" y="271.9">getParent</tspan>
    </text>
  </g>
  <g>
    <polygon style="fill: #ffffff" points="1274.49,317 1355.07,359.442 1274.49,401.884 1193.9,359.442 "/>
    <polygon style="fill: none; fill-opacity:0; stroke-width: 2; stroke: #000000" points="1274.49,317 1355.07,359.442 1274.49,401.884 1193.9,359.442 "/>
    <text font-size="12.7998" style="fill: #000000;text-anchor:middle;font-family:sans-serif;font-style:normal;font-weight:normal" x="1274.49" y="363.342">
      <tspan x="1274.49" y="363.342">if parent==0</tspan>
    </text>
  </g>
  <g>
    <line style="fill: none; fill-opacity:0; stroke-width: 2; stroke: #000000" x1="1274.59" y1="287.992" x2="1274.56" y2="306.291"/>
    <polygon style="fill: #000000" points="1274.55,313.791 1269.56,303.784 1274.56,306.291 1279.56,303.798 "/>
    <polygon style="fill: none; fill-opacity:0; stroke-width: 2; stroke: #000000" points="1274.55,313.791 1269.56,303.784 1274.56,306.291 1279.56,303.798 "/>
  </g>
  <g>
    <rect style="fill: #ffffff" x="1151.08" y="415" width="73.85" height="38"/>
    <rect style="fill: none; fill-opacity:0; stroke-width: 2; stroke: #000000" x="1151.08" y="415" width="73.85" height="38"/>
    <text font-size="12.7998" style="fill: #000000;text-anchor:middle;font-family:sans-serif;font-style:normal;font-weight:normal" x="1188" y="437.9">
      <tspan x="1188" y="437.9">type:=1</tspan>
    </text>
  </g>
  <g>
    <rect style="fill: #ffffff" x="1328.9" y="414" width="73.85" height="38"/>
    <rect style="fill: none; fill-opacity:0; stroke-width: 2; stroke: #000000" x="1328.9" y="414" width="73.85" height="38"/>
    <text font-size="12.7998" style="fill: #000000;text-anchor:middle;font-family:sans-serif;font-style:normal;font-weight:normal" x="1365.82" y="436.9">
      <tspan x="1365.82" y="436.9">type:=2</tspan>
    </text>
  </g>
  <g>
    <line style="fill: none; fill-opacity:0; stroke-width: 2; stroke: #000000" x1="1243.21" y1="386.4" x2="1218.57" y2="407.647"/>
    <polygon style="fill: #000000" points="1212.89,412.544 1217.2,402.228 1218.57,407.647 1223.73,409.802 "/>
    <polygon style="fill: none; fill-opacity:0; stroke-width: 2; stroke: #000000" points="1212.89,412.544 1217.2,402.228 1218.57,407.647 1223.73,409.802 "/>
  </g>
  <g>
    <line style="fill: none; fill-opacity:0; stroke-width: 2; stroke: #000000" x1="1307.1" y1="385.706" x2="1333.42" y2="406.906"/>
    <polygon style="fill: #000000" points="1339.26,411.61 1328.34,409.232 1333.42,406.906 1334.61,401.443 "/>
    <polygon style="fill: none; fill-opacity:0; stroke-width: 2; stroke: #000000" points="1339.26,411.61 1328.34,409.232 1333.42,406.906 1334.61,401.443 "/>
  </g>
  <g>
    <line style="fill: none; fill-opacity:0; stroke-width: 2; stroke: #000000" x1="1188" y1="453" x2="1228.13" y2="490.941"/>
    <polygon style="fill: #000000" points="1233.58,496.093 1222.88,492.857 1228.13,490.941 1229.75,485.59 "/>
    <polygon style="fill: none; fill-opacity:0; stroke-width: 2; stroke: #000000" points="1233.58,496.093 1222.88,492.857 1228.13,490.941 1229.75,485.59 "/>
  </g>
  <g>
    <line style="fill: none; fill-opacity:0; stroke-width: 2; stroke: #000000" x1="1365.82" y1="452" x2="1323.58" y2="491.238"/>
    <polygon style="fill: #000000" points="1318.08,496.342 1322.01,485.873 1323.58,491.238 1328.81,493.201 "/>
    <polygon style="fill: none; fill-opacity:0; stroke-width: 2; stroke: #000000" points="1318.08,496.342 1322.01,485.873 1323.58,491.238 1328.81,493.201 "/>
  </g>
  <g>
    <line style="fill: none; fill-opacity:0; stroke-width: 2; stroke: #000000" x1="1468.84" y1="459.993" x2="1400.85" y2="528.88"/>
    <polygon style="fill: #000000" points="1395.58,534.218 1399.05,523.589 1400.85,528.88 1406.16,530.613 "/>
    <polygon style="fill: none; fill-opacity:0; stroke-width: 2; stroke: #000000" points="1395.58,534.218 1399.05,523.589 1400.85,528.88 1406.16,530.613 "/>
  </g>
  <g>
    <rect style="fill: #ffffff" x="1205.68" y="640" width="140.65" height="54"/>
    <rect style="fill: none; fill-opacity:0; stroke-width: 2; stroke: #000000" x="1205.68" y="640" width="140.65" height="54"/>
    <text font-size="12.7998" style="fill: #000000;text-anchor:middle;font-family:sans-serif;font-style:normal;font-weight:normal" x="1276" y="662.9">
      <tspan x="1276" y="662.9">QualificationLogic:</tspan>
      <tspan x="1276" y="678.9">getKey</tspan>
    </text>
  </g>
  <g>
    <line style="fill: none; fill-opacity:0; stroke-width: 2; stroke: #000000" x1="1275.77" y1="593.149" x2="1275.88" y2="629.263"/>
    <polygon style="fill: #000000" points="1275.91,636.763 1270.87,626.778 1275.88,629.263 1280.87,626.747 "/>
    <polygon style="fill: none; fill-opacity:0; stroke-width: 2; stroke: #000000" points="1275.91,636.763 1270.87,626.778 1275.88,629.263 1280.87,626.747 "/>
  </g>
  <g>
    <rect style="fill: #ffffff" x="1226.9" y="741" width="94.35" height="86"/>
    <rect style="fill: none; fill-opacity:0; stroke-width: 2; stroke: #000000" x="1226.9" y="741" width="94.35" height="86"/>
    <text font-size="12.7998" style="fill: #000000;text-anchor:start;font-family:sans-serif;font-style:normal;font-weight:normal" x="1235.9" y="763.9">
      <tspan x="1235.9" y="763.9">return</tspan>
      <tspan x="1235.9" y="779.9">1.error - 0</tspan>
      <tspan x="1235.9" y="795.9">2.asynckey</tspan>
      <tspan x="1235.9" y="811.9">3.qcert</tspan>
    </text>
  </g>
  <g>
    <line style="fill: none; fill-opacity:0; stroke-width: 2; stroke: #000000" x1="1276" y1="694" x2="1275.22" y2="730.266"/>
    <polygon style="fill: #000000" points="1275.06,737.764 1270.28,727.66 1275.22,730.266 1280.28,727.873 "/>
    <polygon style="fill: none; fill-opacity:0; stroke-width: 2; stroke: #000000" points="1275.06,737.764 1270.28,727.66 1275.22,730.266 1280.28,727.873 "/>
  </g>
  <g>
    <rect style="fill: #ffffff" x="1420.62" y="604.375" width="94.35" height="70"/>
    <rect style="fill: none; fill-opacity:0; stroke-width: 2; stroke: #000000" x="1420.62" y="604.375" width="94.35" height="70"/>
    <text font-size="12.7998" style="fill: #000000;text-anchor:start;font-family:sans-serif;font-style:normal;font-weight:normal" x="1429.62" y="627.275">
      <tspan x="1429.62" y="627.275">return</tspan>
      <tspan x="1429.62" y="643.275">1.erro - 8</tspan>
      <tspan x="1429.62" y="659.275">2.asynckey</tspan>
    </text>
  </g>
  <g>
    <polyline style="fill: none; fill-opacity:0; stroke-width: 2; stroke: #000000" points="1334.8,564.019 1334.8,584 1467.8,584 1467.8,594.639 "/>
    <polygon style="fill: #000000" points="1467.8,602.139 1462.8,592.139 1467.8,594.639 1472.8,592.139 "/>
    <polygon style="fill: none; fill-opacity:0; stroke-width: 2; stroke: #000000" points="1467.8,602.139 1462.8,592.139 1467.8,594.639 1472.8,592.139 "/>
  </g>
  <g>
    <path style="fill: #ffffff" d="M 1008.39 900.99 L 1087.24,900.99 C 1098.13,900.99 1106.95,905.915 1106.95,911.99 C 1106.95,918.065 1098.13,922.99 1087.24,922.99 L 1008.39,922.99 C 997.502,922.99 988.677,918.065 988.677,911.99 C 988.677,905.915 997.502,900.99 1008.39,900.99z"/>
    <path style="fill: none; fill-opacity:0; stroke-width: 2; stroke: #000000" d="M 1008.39 900.99 L 1087.24,900.99 C 1098.13,900.99 1106.95,905.915 1106.95,911.99 C 1106.95,918.065 1098.13,922.99 1087.24,922.99 L 1008.39,922.99 C 997.502,922.99 988.677,918.065 988.677,911.99 C 988.677,905.915 997.502,900.99 1008.39,900.99"/>
    <text font-size="12.7998" style="fill: #000000;text-anchor:middle;font-family:sans-serif;font-style:normal;font-weight:normal" x="1047.81" y="915.99">
      <tspan x="1047.81" y="915.99">end (error)</tspan>
    </text>
  </g>
  <g>
    <line style="fill: none; fill-opacity:0; stroke-width: 2; stroke: #000000" x1="1049.08" y1="879" x2="1048.64" y2="890.26"/>
    <polygon style="fill: #000000" points="1048.36,897.755 1043.74,887.571 1048.64,890.26 1053.74,887.953 "/>
    <polygon style="fill: none; fill-opacity:0; stroke-width: 2; stroke: #000000" points="1048.36,897.755 1043.74,887.571 1048.64,890.26 1053.74,887.953 "/>
  </g>
  <g>
    <polyline style="fill: none; fill-opacity:0; stroke-width: 2; stroke: #000000" points="1097.26,614 1127.95,614 1127.95,911.99 1116.69,911.99 "/>
    <polygon style="fill: #000000" points="1109.19,911.99 1119.19,906.99 1116.69,911.99 1119.19,916.99 "/>
    <polygon style="fill: none; fill-opacity:0; stroke-width: 2; stroke: #000000" points="1109.19,911.99 1119.19,906.99 1116.69,911.99 1119.19,916.99 "/>
  </g>
  <g>
    <path style="fill: #ffffff" d="M 1429.32 703.608 L 1508.17,703.608 C 1519.06,703.608 1527.89,708.533 1527.89,714.608 C 1527.89,720.684 1519.06,725.608 1508.17,725.608 L 1429.32,725.608 C 1418.44,725.608 1409.61,720.684 1409.61,714.608 C 1409.61,708.533 1418.44,703.608 1429.32,703.608z"/>
    <path style="fill: none; fill-opacity:0; stroke-width: 2; stroke: #000000" d="M 1429.32 703.608 L 1508.17,703.608 C 1519.06,703.608 1527.89,708.533 1527.89,714.608 C 1527.89,720.684 1519.06,725.608 1508.17,725.608 L 1429.32,725.608 C 1418.44,725.608 1409.61,720.684 1409.61,714.608 C 1409.61,708.533 1418.44,703.608 1429.32,703.608"/>
    <text font-size="12.7998" style="fill: #000000;text-anchor:middle;font-family:sans-serif;font-style:normal;font-weight:normal" x="1468.75" y="718.608">
      <tspan x="1468.75" y="718.608">end (error)</tspan>
    </text>
  </g>
  <g>
    <line style="fill: none; fill-opacity:0; stroke-width: 2; stroke: #000000" x1="1468.25" y1="675.302" x2="1468.47" y2="692.879"/>
    <polygon style="fill: #000000" points="1468.57,700.379 1463.44,690.443 1468.47,692.879 1473.44,690.316 "/>
    <polygon style="fill: none; fill-opacity:0; stroke-width: 2; stroke: #000000" points="1468.57,700.379 1463.44,690.443 1468.47,692.879 1473.44,690.316 "/>
  </g>
  <g>
    <path style="fill: #ffffff" d="M 1234.12 862.822 L 1312.97,862.822 C 1323.86,862.822 1332.69,867.747 1332.69,873.822 C 1332.69,879.897 1323.86,884.822 1312.97,884.822 L 1234.12,884.822 C 1223.24,884.822 1214.41,879.897 1214.41,873.822 C 1214.41,867.747 1223.24,862.822 1234.12,862.822z"/>
    <path style="fill: none; fill-opacity:0; stroke-width: 2; stroke: #000000" d="M 1234.12 862.822 L 1312.97,862.822 C 1323.86,862.822 1332.69,867.747 1332.69,873.822 C 1332.69,879.897 1323.86,884.822 1312.97,884.822 L 1234.12,884.822 C 1223.24,884.822 1214.41,879.897 1214.41,873.822 C 1214.41,867.747 1223.24,862.822 1234.12,862.822"/>
    <text font-size="12.7998" style="fill: #000000;text-anchor:middle;font-family:sans-serif;font-style:normal;font-weight:normal" x="1273.55" y="877.822">
      <tspan x="1273.55" y="877.822">end</tspan>
    </text>
  </g>
  <g>
    <line style="fill: none; fill-opacity:0; stroke-width: 2; stroke: #000000" x1="1273.82" y1="828.001" x2="1273.68" y2="852.113"/>
    <polygon style="fill: #000000" points="1273.63,859.613 1268.69,849.584 1273.68,852.113 1278.69,849.642 "/>
    <polygon style="fill: none; fill-opacity:0; stroke-width: 2; stroke: #000000" points="1273.63,859.613 1268.69,849.584 1273.68,852.113 1278.69,849.642 "/>
  </g>
</svg>
